<svg width="100" height="100" viewBox="0 0 100 100" fill="none" xmlns="http://www.w3.org/2000/svg">
<rect x="0.61" y="0.61" width="98.78" height="98.78" rx="11.59" fill="#D6000D" stroke="#D6000D" stroke-width="1.22"/>
<path d="M87 24.4048C84.3141 25.8304 81.4276 26.7939 78.398 27.2272C81.4904 25.0088 83.8649 21.4962 84.9832 17.3108C82.0895 19.3647 78.8843 20.8564 75.4728 21.6604C72.7407 18.1769 68.8484 16 64.5409 16C56.2695 16 49.5636 24.0252 49.5636 33.9237C49.5636 35.3285 49.6963 36.6965 49.9515 38.0083C37.5042 37.2609 26.4687 30.125 19.0819 19.281C17.7927 21.9282 17.0541 25.0072 17.0541 28.292C17.0541 34.5104 19.6984 39.9967 23.717 43.2108C21.2618 43.1178 18.9526 42.3116 16.9332 40.9691C16.9321 41.0439 16.9321 41.119 16.9321 41.1944C16.9321 49.8789 22.0946 57.1234 28.9461 58.7698C27.6892 59.1794 26.3661 59.3983 25.0001 59.3983C24.0351 59.3983 23.0968 59.2862 22.1825 59.0769C24.0882 66.198 29.6192 71.3801 36.1729 71.5248C31.0472 76.332 24.5894 79.1975 17.5727 79.1975C16.3639 79.1975 15.1717 79.1129 14 78.9473C20.6279 84.0329 28.5004 87 36.9582 87C64.5059 87 79.57 59.6879 79.57 36.0021C79.57 35.2249 79.5555 34.4519 79.5267 33.6834C82.4527 31.1563 84.992 27.9993 87 24.4048Z" fill="black"/>
</svg>
