<svg width="100" height="100" viewBox="0 0 100 100" fill="none" xmlns="http://www.w3.org/2000/svg">
<path d="M49.9999 9.00919C63.3505 9.00919 64.9318 9.06 70.2041 9.30055C75.079 9.52304 77.7265 10.3376 79.4886 11.0221C81.8222 11.9292 83.488 13.0128 85.2376 14.7624C86.9872 16.512 88.0708 18.1778 88.9777 20.5114C89.6624 22.2735 90.477 24.921 90.6994 29.7957C90.94 35.0682 90.9908 36.6495 90.9908 50.0001C90.9908 63.3507 90.94 64.932 90.6994 70.2043C90.477 75.0792 89.6624 77.7267 88.9777 79.4888C88.0708 81.8224 86.9872 83.4882 85.2376 85.2378C83.488 86.9874 81.8222 88.071 79.4886 88.9779C77.7265 89.6626 75.079 90.4772 70.2041 90.6996C64.9326 90.9402 63.3513 90.991 49.9999 90.991C36.6485 90.991 35.0672 90.9402 29.7957 90.6996C24.9208 90.4772 22.2733 89.6626 20.5114 88.9779C18.1776 88.071 16.5118 86.9874 14.7622 85.2378C13.0126 83.4882 11.929 81.8224 11.0221 79.4888C10.3374 77.7267 9.52285 75.0792 9.30035 70.2045C9.0598 64.932 9.00899 63.3507 9.00899 50.0001C9.00899 36.6495 9.0598 35.0682 9.30035 29.7959C9.52285 24.921 10.3374 22.2735 11.0221 20.5114C11.929 18.1778 13.0126 16.512 14.7622 14.7624C16.5118 13.0128 18.1776 11.9292 20.5114 11.0221C22.2733 10.3376 24.9208 9.52304 29.7955 9.30055C35.068 9.06 36.6493 9.00919 49.9999 9.00919ZM49.9999 0C36.4206 0 34.7181 0.0575579 29.3851 0.300889C24.0629 0.543822 20.4285 1.38893 17.2479 2.62503C13.96 3.90282 11.1716 5.61248 8.39193 8.39213C5.61229 11.1718 3.90262 13.9602 2.62484 17.2481C1.38873 20.4287 0.543624 24.0631 0.30069 29.3853C0.0573594 34.7181 0 36.4208 0 50.0001C0 63.5794 0.0573594 65.2821 0.30069 70.6149C0.543624 75.937 1.38873 79.5715 2.62484 82.7521C3.90262 86.0398 5.61229 88.8284 8.39193 91.6081C11.1716 94.3877 13.96 96.0974 17.2479 97.3752C20.4285 98.6113 24.0629 99.4564 29.3851 99.6993C34.7181 99.9426 36.4206 100 49.9999 100C63.5792 100 65.2819 99.9426 70.6147 99.6993C75.9369 99.4564 79.5713 98.6113 82.7519 97.3752C86.0398 96.0974 88.8282 94.3877 91.6079 91.6081C94.3875 88.8284 96.0972 86.04 97.375 82.7521C98.6111 79.5715 99.4562 75.937 99.6991 70.6149C99.9424 65.2821 100 63.5794 100 50.0001C100 36.4208 99.9424 34.7181 99.6991 29.3853C99.4562 24.0631 98.6111 20.4287 97.375 17.2481C96.0972 13.9602 94.3875 11.1718 91.6079 8.39213C88.8282 5.61248 86.0398 3.90282 82.7519 2.62503C79.5713 1.38893 75.9369 0.543822 70.6147 0.300889C65.2819 0.0575579 63.5792 0 49.9999 0ZM49.9999 24.3243C35.8196 24.3243 24.3241 35.8198 24.3241 50.0001C24.3241 64.1804 35.8196 75.6759 49.9999 75.6759C64.1802 75.6759 75.6757 64.1804 75.6757 50.0001C75.6757 35.8198 64.1802 24.3243 49.9999 24.3243ZM49.9999 66.6669C40.7952 66.6669 33.3331 59.2048 33.3331 50.0001C33.3331 40.7954 40.7952 33.3333 49.9999 33.3333C59.2046 33.3333 66.6667 40.7954 66.6667 50.0001C66.6667 59.2048 59.2046 66.6669 49.9999 66.6669ZM82.69 23.3099C82.69 26.6237 80.0038 29.31 76.6901 29.31C73.3763 29.31 70.69 26.6237 70.69 23.3099C70.69 19.9962 73.3763 17.31 76.6901 17.31C80.0038 17.31 82.69 19.9962 82.69 23.3099Z" fill="#D6000D"/>
</svg>
